<?xml version="1.0" standalone="no"?>
<!DOCTYPE svg PUBLIC "-//W3C//DTD SVG 20010904//EN"
 "http://www.w3.org/TR/2001/REC-SVG-20010904/DTD/svg10.dtd">
<svg version="1.0" xmlns="http://www.w3.org/2000/svg"
 width="332.000000pt" height="332.000000pt" viewBox="0 0 332.000000 332.000000"
 preserveAspectRatio="xMidYMid meet">
<metadata>
Created by potrace 1.14, written by Peter Selinger 2001-2017
</metadata>
<g transform="translate(0.000000,332.000000) scale(0.100000,-0.100000)"
fill="#000000" stroke="none">
<path d="M565 3108 c-3 -7 -4 -312 -3 -678 l3 -665 148 -3 147 -3 0 266 0 265
275 0 275 0 0 120 0 120 -275 0 -275 0 0 175 0 175 305 0 306 0 -3 118 -3 117
-448 3 c-353 2 -449 0 -452 -10z"/>
<path d="M1710 3001 c0 -86 3 -120 13 -124 6 -2 94 -3 195 -2 l182 3 0 -559 0
-559 150 0 150 0 0 558 0 557 172 -3 c95 -2 183 0 195 3 22 5 23 9 23 125 l0
120 -540 0 -540 0 0 -119z"/>
<path d="M567 1513 c-4 -3 -7 -309 -7 -680 l0 -673 150 0 150 0 0 265 0 265
278 2 277 3 3 95 c2 52 0 105 -3 118 l-5 22 -275 0 -275 0 0 170 0 170 303 2
302 3 3 123 3 122 -449 0 c-247 0 -452 -3 -455 -7z"/>
<path d="M1712 1398 l3 -123 193 -3 192 -2 0 -555 0 -555 150 0 150 0 0 555 0
555 193 2 192 3 3 123 3 122 -541 0 -541 0 3 -122z"/>
</g>
</svg>
